<svg xmlns="http://www.w3.org/2000/svg">
  <symbol viewBox="0 0 16 16" id="icon-login">
<svg class="social__icon" width="24" height="19" viewBox="0 0 24 19" focusable="false" fill="currentColor"
                role="img" fill="none" aria-label="Иконка Ютуб." fill="none" xmlns="http://www.w3.org/2000/svg">
                <path
                  d="m15.85 8.793-5.236-3.491a.655.655 0 0 0-1.014.545v6.982a.655.655 0 0 0 1.014.546l5.237-3.491a.654.654 0 0 0 0-1.091Zm-4.94 2.814V7.07l3.403 2.27-3.404 2.268Zm12.48-8.563a2.4 2.4 0 0 0-1.452-1.637C18.218-.022 12.251 0 12 0c-.25 0-6.218-.022-9.938 1.407A2.4 2.4 0 0 0 .61 3.044C.327 4.113 0 6.076 0 9.338c0 3.262.327 5.226.61 6.295a2.4 2.4 0 0 0 1.452 1.636c3.72 1.43 9.687 1.407 9.938 1.407h.076c.753 0 6.317-.043 9.862-1.407a2.4 2.4 0 0 0 1.451-1.636c.284-1.07.611-3.033.611-6.295s-.327-5.225-.61-6.294Zm-1.266 12.261a1.09 1.09 0 0 1-.655.742c-3.49 1.342-9.404 1.32-9.469 1.32-.066 0-5.978.022-9.47-1.32a1.09 1.09 0 0 1-.654-.742c-.261-1.003-.567-2.847-.567-5.967 0-3.12.306-4.963.567-5.967a1.09 1.09 0 0 1 .655-.742C6.02 1.287 11.934 1.31 12 1.31c.066 0 5.978-.022 9.47 1.32a1.092 1.092 0 0 1 .654.742c.262 1.004.567 2.847.567 5.967 0 3.12-.305 4.964-.567 5.968Z" />
              </svg>  </symbol>
  <symbol viewBox="0 0 16 16" id="icon-comb">
    <path d="M10.4.75L.76 10.4a1.21 1.21 0 000 1.72l1 1 .52.5 1.9 1.9a.33.33 0 10.43-.52l-1.72-1.68a.25.25 0 010-.38.26.26 0 01.38 0L5 14.65a.33.33 0 10.46-.46l-1.71-1.7a.26.26 0 010-.38.27.27 0 01.39 0l1.71 1.71a.33.33 0 10.46-.46l-1.72-1.7a.25.25 0 010-.38.26.26 0 01.38 0L6.66 13a.32.32 0 00.46 0 .33.33 0 000-.47l-1.71-1.72a.26.26 0 010-.38.27.27 0 01.39 0l1.71 1.71a.33.33 0 10.49-.46L6.24 10a.26.26 0 010-.38.27.27 0 01.39 0l1.71 1.71a.33.33 0 00.46-.46L7.09 9.13a.26.26 0 010-.38.27.27 0 01.39 0l1.71 1.71a.33.33 0 00.46-.46L7.92 8.3a.26.26 0 010-.38.27.27 0 01.39 0L10 9.63a.33.33 0 00.46-.46L8.77 7.45a.26.26 0 010-.38.27.27 0 01.39 0l1.69 1.73a.33.33 0 00.47 0 .35.35 0 000-.47L9.6 6.62a.26.26 0 010-.38.27.27 0 01.39 0L11.7 8a.33.33 0 10.46-.46l-1.72-1.7a.27.27 0 11.38-.38l1.71 1.71a.32.32 0 00.46 0 .33.33 0 000-.47l-1.71-1.76a.26.26 0 010-.38.27.27 0 01.39 0l1.71 1.71a.33.33 0 00.46-.46l-1.73-1.7a.26.26 0 010-.38.27.27 0 01.39 0l1.71 1.71a.32.32 0 00.46 0 .33.33 0 000-.47L13 3.26a.26.26 0 010-.38.27.27 0 01.39 0L15 4.59a.33.33 0 00.47 0 .34.34 0 000-.46L13.6 2.24l-.51-.51-1-1a1.23 1.23 0 00-1.69.02z"/>
  </symbol>
</svg>